<svg width="400" height="400" viewBox="0 0 400 400" fill="none" xmlns="http://www.w3.org/2000/svg">
<path d="M195.864 259.71C184.16 235.502 164.481 215.84 140.273 204.136C136.842 202.482 136.842 197.536 140.273 195.881C164.481 184.16 184.143 164.498 195.864 140.308C197.518 136.877 202.464 136.877 204.119 140.308C215.822 164.516 235.502 184.178 259.71 195.881C263.141 197.536 263.141 202.482 259.71 204.136C235.502 215.857 215.84 235.519 204.119 259.71C202.464 263.141 197.518 263.141 195.864 259.71Z" fill="#1ED75F"/>
<path d="M88.5831 215.369C115.107 215.369 139.123 226.115 156.504 243.496C173.885 260.877 184.631 284.893 184.631 311.417C184.631 312.026 184.631 312.653 184.613 313.263C184.404 324.357 173.85 332.385 163.174 329.355C118.521 316.676 83.341 281.479 70.6624 236.843C67.632 226.167 75.6607 215.613 86.7544 215.404C87.364 215.404 87.991 215.387 88.6005 215.387L88.5831 215.369Z" fill="#1ED75F"/>
<path d="M184.631 88.5831C184.631 115.107 173.885 139.123 156.504 156.504C139.123 173.885 115.107 184.631 88.5832 184.631C87.9736 184.631 87.3467 184.631 86.7371 184.613C75.6433 184.404 67.6147 173.85 70.645 163.174C83.3236 118.521 118.521 83.341 163.157 70.6624C173.833 67.632 184.387 75.6607 184.596 86.7545C184.596 87.364 184.613 87.991 184.613 88.6005L184.631 88.5831Z" fill="#1ED75F"/>
<path d="M215.369 311.399C215.369 284.875 226.115 260.859 243.496 243.478C260.877 226.097 284.893 215.352 311.417 215.352C312.026 215.352 312.653 215.352 313.263 215.369C324.357 215.578 332.385 226.132 329.355 236.808C316.676 281.462 281.479 316.642 236.843 329.32C226.167 332.35 215.613 324.322 215.404 313.228C215.404 312.619 215.387 311.992 215.387 311.382L215.369 311.399Z" fill="#1ED75F"/>
<path d="M311.4 184.631C284.875 184.631 260.859 173.885 243.478 156.504C226.098 139.123 215.352 115.107 215.352 88.5832C215.352 87.9736 215.352 87.3466 215.369 86.7371C215.578 75.6433 226.132 67.6147 236.808 70.645C281.462 83.3236 316.642 118.521 329.32 163.157C332.351 173.833 324.322 184.387 313.228 184.596C312.619 184.596 311.992 184.613 311.382 184.613L311.4 184.631Z" fill="#1ED75F"/>
</svg>
