<svg width="80" height="80" viewBox="0 0 80 80" fill="none" xmlns="http://www.w3.org/2000/svg">
<g clip-path="url(#clip0_856_243)">
<path d="M70.8333 6.6665H9.16667C4.1 6.6665 0 10.7665 0 15.8332V19.9998H60C63.6667 19.9998 66.6667 22.9998 66.6667 26.6665V53.3332C66.6667 56.9998 63.6667 59.9998 60 59.9998H0V64.1665C0 69.2332 4.1 73.3332 9.16667 73.3332H70.8333C75.9 73.3332 80 69.2332 80 64.1665V15.8332C80 10.7665 75.9 6.6665 70.8333 6.6665Z" fill="#CFD8DC"/>
<path d="M60 20H0V60H60C63.6667 60 66.6667 57 66.6667 53.3333V26.6667C66.6667 23 63.6667 20 60 20Z" fill="#90A4AE"/>
<path d="M24.1667 53.3332H0V26.6665H24.1667C25.3705 26.6665 26.5624 26.9036 27.6746 27.3643C28.7868 27.8249 29.7973 28.5002 30.6485 29.3514C31.4997 30.2026 32.1749 31.2131 32.6356 32.3252C33.0962 33.4374 33.3333 34.6294 33.3333 35.8332V44.1665C33.3333 45.3703 33.0962 46.5623 32.6356 47.6744C32.1749 48.7866 31.4997 49.7971 30.6485 50.6483C29.7973 51.4995 28.7868 52.1747 27.6746 52.6354C26.5624 53.0961 25.3705 53.3332 24.1667 53.3332Z" fill="#CFD8DC"/>
<path d="M10 39.9998C9.97992 40.8876 10.1374 41.7705 10.4632 42.5966C10.7891 43.4227 11.2766 44.1753 11.8973 44.8104C12.518 45.4455 13.2594 45.9501 14.0778 46.2947C14.8962 46.6394 15.7753 46.817 16.6633 46.8172C17.5513 46.8174 18.4304 46.6402 19.249 46.296C20.0676 45.9518 20.8092 45.4475 21.4302 44.8128C22.0513 44.178 22.5392 43.4256 22.8655 42.5997C23.1917 41.7738 23.3496 40.891 23.33 40.0032C23.2915 38.2613 22.5726 36.6037 21.3272 35.3853C20.0818 34.1668 18.4089 33.4843 16.6666 33.4839C14.9243 33.4835 13.2511 34.1651 12.0051 35.3829C10.7591 36.6008 10.0394 38.258 10 39.9998Z" fill="#90A4AE"/>
<path d="M80 40H66.6667V53.3333C66.6667 57 63.6667 60 60 60H0V64.1667C0 69.2333 4.1 73.3333 9.16667 73.3333H70.8333C75.9 73.3333 80 69.2333 80 64.1667V40Z" fill="#B4BCC0"/>
<path d="M66.6667 40H33.3333V44.1667C33.3333 45.3705 33.0962 46.5624 32.6356 47.6746C32.1749 48.7867 31.4997 49.7973 30.6485 50.6485C29.7973 51.4997 28.7868 52.1749 27.6746 52.6356C26.5624 53.0962 25.3705 53.3333 24.1667 53.3333H0V40V60H60C63.6667 60 66.6667 57 66.6667 53.3333V40Z" fill="#7D8F97"/>
<path d="M33.3333 40H23.3333C23.3333 41.7681 22.631 43.4638 21.3807 44.714C20.1305 45.9643 18.4348 46.6667 16.6667 46.6667C14.8986 46.6667 13.2029 45.9643 11.9526 44.714C10.7024 43.4638 10 41.7681 10 40H0V53.3333H24.1667C25.3705 53.3333 26.5624 53.0962 27.6746 52.6356C28.7868 52.1749 29.7973 51.4997 30.6485 50.6485C31.4997 49.7973 32.1749 48.7868 32.6356 47.6746C33.0962 46.5624 33.3333 45.3705 33.3333 44.1667V40Z" fill="#B4BCC0"/>
<path d="M23.3333 40H10C10 41.7681 10.7024 43.4638 11.9526 44.714C13.2029 45.9643 14.8986 46.6667 16.6667 46.6667C18.4348 46.6667 20.1305 45.9643 21.3807 44.714C22.631 43.4638 23.3333 41.7681 23.3333 40Z" fill="#7D8F97"/>
</g>
<defs>
<clipPath id="clip0_856_243">
<rect width="80" height="80" fill="white"/>
</clipPath>
</defs>
</svg>
