<svg width="65" height="65" viewBox="0 0 65 65" fill="none" xmlns="http://www.w3.org/2000/svg">
<path d="M39.6918 14.4836C40.2227 14.4836 40.653 14.0532 40.653 13.5224C40.653 12.9916 40.2227 12.5612 39.6918 12.5612C39.161 12.5612 38.7307 12.9916 38.7307 13.5224C38.7307 14.0532 39.161 14.4836 39.6918 14.4836Z" fill="#55E6A5"/>
<path d="M26.2304 27.4569C26.7471 27.3344 27.0664 26.8165 26.9439 26.2999C26.8214 25.7834 26.3035 25.464 25.7869 25.5865C25.2705 25.709 24.9511 26.2269 25.0736 26.7434C25.196 27.26 25.714 27.5794 26.2304 27.4569Z" fill="#55E6A5"/>
<path d="M40.9712 51.969C41.502 51.969 41.9323 51.5387 41.9323 51.0078C41.9323 50.477 41.502 50.0468 40.9712 50.0468C40.4404 50.0468 40.01 50.477 40.01 51.0078C40.01 51.5387 40.4404 51.969 40.9712 51.969Z" fill="#55E6A5"/>
<path d="M29.7689 38.9521C29.6678 38.8848 29.5628 38.8234 29.4549 38.7677L47.4655 20.7589C47.555 20.6696 47.6259 20.5634 47.6743 20.4466C47.7228 20.3297 47.7476 20.2045 47.7476 20.0781C47.7476 19.9517 47.7228 19.8264 47.6743 19.7097C47.6259 19.5928 47.555 19.4867 47.4655 19.3974L44.6541 16.586C44.2781 16.21 43.6685 16.21 43.2926 16.586L26.5639 33.3145C26.2074 33.1604 25.7982 33.0423 25.407 33.0401L21.3734 33.021C20.0859 33.0102 18.8756 33.5113 17.9633 34.4185C17.9449 34.4368 17.9265 34.4554 17.9083 34.4741C17.5778 33.9583 17.0648 33.5621 16.4848 33.3664C16.1242 33.2447 15.7411 33.196 15.3456 33.2219C14.5055 33.2767 13.7653 33.6543 13.2615 34.2854C13.1277 34.4534 13.0112 34.6344 12.9139 34.8257C12.5558 34.6972 12.1821 34.6222 11.8116 34.6081C11.2197 34.5853 10.3733 34.7373 9.77335 35.2304C9.47962 35.472 9.1018 35.8443 8.8742 36.3058C8.47196 36.1376 8.01244 36.0462 7.46883 36.0866C5.92611 36.2011 4.61435 37.6006 4.60444 39.1481L4.59628 48.4128C4.59628 50.4366 5.28742 52.6031 6.59496 54.6781C7.27794 55.762 7.98601 56.596 8.41766 57.0507L8.41199 59.8322C8.41174 59.9586 8.43643 60.084 8.48465 60.2009C8.53286 60.3179 8.60366 60.4243 8.69299 60.5139C8.78232 60.6035 8.88845 60.6745 9.00529 60.7232C9.12211 60.7717 9.24737 60.7968 9.3739 60.7968L20.751 60.8069H20.7519C21.2829 60.8069 21.7136 60.3771 21.7147 59.846L21.7202 56.9535L30.7533 43.9332C30.7588 43.9252 30.7642 43.9173 30.7695 43.9092C31.8316 42.2752 31.3854 40.0532 29.7689 38.9521ZM37.0138 25.5878L38.4633 27.0373L28.6397 36.8598C28.6433 36.8258 28.6481 36.7923 28.6508 36.7579C28.7125 35.9449 28.4845 35.1741 28.0553 34.5464L37.0138 25.5878ZM43.9733 18.6282L45.4232 20.0781L39.8248 25.6758L38.3753 24.2263L43.9733 18.6282ZM29.162 42.8489L19.9669 56.1025C19.8554 56.2632 19.7955 56.454 19.7951 56.6496L19.7909 58.8805L10.3394 58.8723L10.3439 56.6534C10.3442 56.5129 10.3137 56.3739 10.2546 56.2464C10.1954 56.1189 10.1091 56.0059 10.0016 55.9154C9.86783 55.7861 6.52163 52.4562 6.52163 48.4137L6.52979 39.1552C6.53335 38.6059 7.0588 38.0479 7.61107 38.0069C7.93661 37.9826 8.17517 38.0557 8.51359 38.3119L8.51176 40.3684C8.51127 40.9001 8.94197 41.3316 9.47366 41.332H9.47452C10.0058 41.332 10.4368 40.9015 10.4373 40.37L10.4394 37.9031C10.4697 37.6505 10.5103 37.3924 10.5926 37.1762C10.6187 37.1078 10.7329 36.9343 10.9961 36.7178C11.1157 36.6195 11.4335 36.5204 11.7383 36.5322C12.0188 36.5428 12.3136 36.6337 12.5752 36.7822L12.5721 40.3648C12.5716 40.8965 13.0023 41.328 13.534 41.3284H13.5348C14.0662 41.3284 14.4972 40.8979 14.4976 40.3666L14.5014 36.0646C14.5846 35.6696 14.824 35.2975 15.2283 35.1835C15.6153 35.0743 16.0939 35.1695 16.3044 35.5423C16.5799 36.0299 16.5368 36.7016 16.5368 37.2413L16.5443 40.491C16.5438 41.0227 16.9745 41.4542 17.5062 41.4546H17.507C18.0383 41.4546 18.4693 41.0241 18.4698 40.4928L18.4721 37.8224C18.4728 37.0515 18.7742 36.3275 19.3209 35.7839C19.8676 35.2403 20.5955 34.9436 21.364 34.9465L25.3558 34.9654C26.1794 35.051 26.7935 35.7829 26.7305 36.6122C26.679 37.2918 26.1018 38.0225 24.9561 38.0225H24.9538L23.2477 38.0211C22.0673 38.0211 21.0811 39.0034 21.0801 40.1847L21.0759 45.0964C21.0758 45.2982 21.139 45.4949 21.2566 45.6587C21.3743 45.8226 21.5404 45.9453 21.7316 46.0096C21.9229 46.074 22.1295 46.0767 22.3222 46.0173C22.515 45.9579 22.6842 45.8393 22.8061 45.6786L26.509 40.7904C27.0898 40.1721 28.121 40.1654 28.6907 40.5473C29.439 41.0571 29.6489 42.087 29.162 42.8489ZM24.7316 39.9478L23.004 42.2283L23.0057 40.1862C23.0064 40.1227 23.0319 40.0619 23.0769 40.0171C23.1218 39.9723 23.1826 39.947 23.2461 39.9465L24.7316 39.9478Z" fill="#55E6A5"/>
<path d="M27.0438 17.9992L29.7668 19.4886L31.2562 22.2117C31.3391 22.3632 31.4613 22.4897 31.6099 22.5779C31.7585 22.666 31.9281 22.7124 32.1009 22.7124C32.2736 22.7124 32.4432 22.666 32.5918 22.5779C32.7404 22.4897 32.8626 22.3632 32.9455 22.2117L34.4349 19.4886L37.1579 17.9992C37.3095 17.9163 37.436 17.7942 37.5241 17.6456C37.6122 17.4969 37.6587 17.3273 37.6587 17.1545C37.6587 16.9819 37.6122 16.8123 37.5241 16.6637C37.436 16.5151 37.3095 16.3928 37.1579 16.31L34.4349 14.8206L32.9455 12.0975C32.8626 11.9459 32.7404 11.8195 32.5918 11.7314C32.4432 11.6433 32.2736 11.5968 32.1009 11.5968C31.9281 11.5968 31.7585 11.6433 31.6099 11.7314C31.4613 11.8195 31.3391 11.9459 31.2562 12.0975L29.7668 14.8206L27.0438 16.31C26.8922 16.3928 26.7657 16.5151 26.6776 16.6637C26.5895 16.8123 26.543 16.9819 26.543 17.1545C26.543 17.3273 26.5895 17.4969 26.6776 17.6456C26.7657 17.7942 26.8922 17.9163 27.0438 17.9992ZM30.9382 16.3746C31.0997 16.2863 31.2326 16.1535 31.3209 15.9919L32.1009 14.5659L32.8808 15.9919C32.9691 16.1535 33.102 16.2863 33.2635 16.3746L34.6896 17.1545L33.2635 17.9346C33.102 18.0229 32.9691 18.1558 32.8808 18.3173L32.1009 19.7433L31.3209 18.3173C31.2326 18.1558 31.0997 18.0229 30.9382 17.9346L29.5121 17.1545L30.9382 16.3746Z" fill="#55E6A5"/>
<path d="M41.485 34.1463L44.2081 35.6356L45.6975 38.3588C45.7804 38.5103 45.9025 38.6368 46.0511 38.7248C46.1997 38.8129 46.3693 38.8594 46.5421 38.8594C46.7149 38.8594 46.8844 38.8129 47.033 38.7248C47.1816 38.6368 47.3039 38.5103 47.3868 38.3588L48.8761 35.6356L51.5993 34.1463C51.7508 34.0633 51.8773 33.9411 51.9654 33.7925C52.0534 33.6439 52.0999 33.4744 52.0999 33.3016C52.0999 33.1288 52.0534 32.9592 51.9654 32.8106C51.8773 32.662 51.7508 32.5399 51.5993 32.4569L48.8761 30.9675L47.3868 28.2444C47.3039 28.0929 47.1816 27.9664 47.033 27.8784C46.8844 27.7902 46.7149 27.7437 46.5421 27.7437C46.3693 27.7437 46.1997 27.7902 46.0511 27.8784C45.9025 27.9664 45.7804 28.0929 45.6975 28.2444L44.2081 30.9675L41.485 32.4569C41.3334 32.5399 41.207 32.662 41.1189 32.8106C41.0307 32.9592 40.9843 33.1288 40.9843 33.3016C40.9843 33.4744 41.0307 33.6439 41.1189 33.7925C41.207 33.9411 41.3334 34.0633 41.485 34.1463ZM45.3794 32.5216C45.5411 32.4332 45.6738 32.3005 45.7621 32.1388L46.5421 30.7128L47.322 32.1388C47.4104 32.3005 47.5432 32.4332 47.7048 32.5216L49.1308 33.3016L47.7048 34.0815C47.5432 34.1698 47.4104 34.3027 47.322 34.4642L46.5421 35.8903L45.7621 34.4642C45.6738 34.3027 45.5411 34.1698 45.3794 34.0815L43.9533 33.3016L45.3794 32.5216Z" fill="#55E6A5"/>
<path d="M43.7686 13.9319L48.2527 16.3673L50.7053 20.8201C50.8418 21.0679 51.043 21.2746 51.2877 21.4187C51.5325 21.5627 51.8116 21.6388 52.0962 21.6388C52.3806 21.6388 52.6599 21.5627 52.9046 21.4187C53.1494 21.2746 53.3505 21.0679 53.487 20.8201L55.9395 16.3673L60.4236 13.9319C60.6732 13.7963 60.8815 13.5965 61.0265 13.3536C61.1716 13.1105 61.2482 12.8333 61.2482 12.5508C61.2482 12.2683 61.1716 11.991 61.0265 11.748C60.8815 11.505 60.6732 11.3052 60.4236 11.1696L55.9395 8.73424L53.487 4.28152C53.3505 4.03369 53.1494 3.82689 52.9046 3.68284C52.6599 3.53879 52.3806 3.46277 52.0962 3.46277C51.8116 3.46277 51.5325 3.53879 51.2877 3.68284C51.043 3.82689 50.8418 4.03369 50.7053 4.28152L48.2527 8.73424L43.7686 11.1696C43.519 11.3052 43.3109 11.505 43.1658 11.748C43.0207 11.991 42.9442 12.2683 42.9442 12.5508C42.9442 12.8333 43.0207 13.1105 43.1658 13.3536C43.3109 13.5965 43.519 13.7963 43.7686 13.9319ZM50.1816 11.2754C50.4477 11.131 50.6663 10.9138 50.8118 10.6496L52.0962 8.31776L53.3805 10.6496C53.5259 10.9138 53.7447 11.131 54.0107 11.2754L56.359 12.5508L54.0107 13.8262C53.7447 13.9705 53.5259 14.1878 53.3805 14.452L52.0962 16.7837L50.8118 14.452C50.6663 14.1878 50.4477 13.9705 50.1816 13.8262L47.8334 12.5508L50.1816 11.2754Z" fill="#55E6A5"/>
</svg>
