<svg width="676" height="300" viewBox="0 0 676 300" fill="none" xmlns="http://www.w3.org/2000/svg">
<g clip-path="url(#clip0_163_1361)">
<path d="M118.783 182.171C112.483 169.134 101.895 158.546 88.8575 152.246C87.02 151.342 87.02 148.687 88.8575 147.783C101.895 141.483 112.483 130.895 118.783 117.857C119.687 116.02 122.342 116.02 123.246 117.857C129.546 130.895 140.134 141.483 153.172 147.783C155.009 148.687 155.009 151.342 153.172 152.246C140.134 158.546 129.546 169.134 123.246 182.171C122.342 184.009 119.687 184.009 118.783 182.171Z" fill="#1ED760"/>
<path d="M61.0027 158.283C75.2947 158.283 88.2159 164.059 97.5786 173.421C106.941 182.784 112.716 195.705 112.716 209.997C112.716 210.318 112.716 210.668 112.716 210.989C112.6 216.968 106.912 221.285 101.166 219.652C77.1323 212.826 58.1735 193.868 51.3483 169.834C49.7149 164.088 54.0317 158.4 60.011 158.283C60.3318 158.283 60.6818 158.283 61.0027 158.283Z" fill="#1ED760"/>
<path d="M112.716 90.0027C112.716 104.295 106.941 117.216 97.5786 126.579C88.2159 135.941 75.2947 141.716 61.0027 141.716C60.6818 141.716 60.3318 141.716 60.011 141.716C54.0317 141.6 49.7149 135.912 51.3483 130.166C58.1735 106.132 77.1323 87.1735 101.166 80.3483C106.912 78.7149 112.6 83.0317 112.716 89.011C112.716 89.3318 112.716 89.6818 112.716 90.0027Z" fill="#1ED760"/>
<path d="M129.284 209.997C129.284 195.705 135.059 182.784 144.421 173.421C153.784 164.059 166.705 158.283 180.997 158.283C181.318 158.283 181.668 158.283 181.989 158.283C187.968 158.4 192.285 164.088 190.652 169.834C183.827 193.868 164.868 212.826 140.834 219.652C135.088 221.285 129.4 216.968 129.284 210.989C129.284 210.668 129.284 210.318 129.284 209.997Z" fill="#1ED760"/>
<path d="M180.997 141.745C166.705 141.745 153.784 135.97 144.421 126.607C135.059 117.245 129.284 104.324 129.284 90.0315C129.284 89.7107 129.284 89.3606 129.284 89.0398C129.4 83.0605 135.088 78.7437 140.834 80.3771C164.868 87.2023 183.827 106.161 190.652 130.195C192.285 135.941 187.968 141.629 181.989 141.745C181.668 141.745 181.318 141.745 180.997 141.745Z" fill="#1ED760"/>
<path d="M227 111.82H282.418V122.7H238.959V143.992H275.243V154.871H238.959V178.293H282.418V189.172H227V111.82Z" fill="white"/>
<path d="M350.378 189.143H294.347V111.791H306.364V178.263H350.378V189.143Z" fill="white"/>
<path d="M362.278 189.143V111.791H374.237L421.342 170.738V111.791H433.301V189.143H421.226L374.237 130.779V189.143H362.278Z" fill="white"/>
<path d="M443.889 189.143L475.827 111.791H488.806L520.745 189.143H507.999L501.844 173.013H462.789L456.635 189.143H443.889ZM498.286 163.067L482.331 125.208L466.377 163.067H498.257H498.286Z" fill="white"/>
<path d="M533.753 176.339C537.749 176.339 540.754 179.46 540.754 183.339C540.754 187.218 537.749 190.281 533.753 190.281C529.757 190.281 526.812 187.218 526.812 183.339C526.812 179.46 529.787 176.339 533.753 176.339Z" fill="white"/>
<path d="M575.404 156.301C581.967 156.301 586.692 157.672 589.201 158.867V155.892C589.201 149.067 583.688 143.934 575.2 143.934C568.433 143.934 562.775 147.813 559.537 151.517L552.421 144.459C556.621 139.092 565.4 133.346 575.375 133.346C590.746 133.346 600.488 141.659 600.488 154.93V189.172H589.434V182.114C586.08 187.247 579.75 190.31 572.4 190.31C560.558 190.31 551.283 184.331 551.283 173.626C551.283 162.922 561.083 156.301 575.434 156.301H575.404ZM574.034 181.064C582.93 181.064 589.171 174.968 589.171 167.501C586.838 166.305 581.588 164.876 575.667 164.876C568.55 164.876 562.629 167.268 562.629 173.189C562.629 178.147 567.588 181.035 574.034 181.035V181.064Z" fill="white"/>
<path d="M618.251 109.195C622.364 109.195 625.252 112.054 625.252 116.137C625.252 120.221 622.335 123.079 618.251 123.079C614.168 123.079 611.31 120.221 611.31 116.137C611.31 112.054 614.168 109.195 618.251 109.195ZM612.622 189.143V134.454H623.91V189.143H612.622Z" fill="white"/>
</g>
<defs>
<clipPath id="clip0_163_1361">
<rect width="675.32" height="299.56" fill="white"/>
</clipPath>
</defs>
</svg>
