<?xml version="1.0" encoding="UTF-8"?>
<svg id="Layer_2" xmlns="http://www.w3.org/2000/svg" version="1.1" viewBox="0 0 300 200">
  <!-- Generator: Adobe Illustrator 29.1.0, SVG Export Plug-In . SVG Version: 2.1.0 Build 142)  -->
  <defs>
    <style>
      .st0 {
        fill: none;
      }

      .st1 {
        fill: #fff6eb;
      }

      .st2 {
        fill: #dde9fc;
      }

      .st3 {
        fill: #d6eaed;
      }

      .st4 {
        fill: #39b54a;
      }

      .st5 {
        fill: #eaaa5e;
      }

      .st6 {
        fill: #2f3133;
      }

      .st7 {
        fill: #4b4e53;
      }

      .st8 {
        fill: #1ed760;
      }

      .st9 {
        fill: #f89d13;
      }

      .st10 {
        fill: #fbfdff;
      }
    </style>
  </defs>
  <g id="OBJECTS">
    <path class="st3" d="M250.6,153.6c0,1.5-1.4,2.8-3.1,2.8H52.5c-1.7,0-3.1-1.2-3.1-2.8V35.7c0-1.5,1.4-2.8,3.1-2.8h194.9c1.7,0,3.1,1.2,3.1,2.8v117.9h0Z"/>
    <path class="st1" d="M240.4,147.3H59.6V42.1h180.7v105.2h0Z"/>
    <path class="st7" d="M250.9,167.1H49.1c-5,0-9.1-4.1-9.1-9.1h0c0-.9.7-1.6,1.6-1.6h216.8c.9,0,1.6.7,1.6,1.6h0c0,5-4.1,9.1-9.1,9.1Z"/>
    <path class="st6" d="M164.4,156.4h0c0,3.1-2.5,5.5-5.5,5.5h-17.9c-3.1,0-5.5-2.5-5.5-5.5h0"/>
    <rect class="st10" x="61.4" y="43.5" width="177.4" height="101.6"/>
    <rect class="st2" x="61.4" y="43.5" width="177.4" height="10.8"/>
    <path class="st9" d="M67.8,49.3c0,1-.8,1.8-1.8,1.8s-1.8-.8-1.8-1.8.8-1.8,1.8-1.8,1.8.8,1.8,1.8Z"/>
    <circle class="st5" cx="71.6" cy="49.3" r="1.8"/>
    <circle class="st4" cx="77.2" cy="49.3" r="1.8"/>
    <rect class="st2" x="100" y="57.3" width="135" height="4.6"/>
    <rect class="st2" x="100" y="67.2" width="20.6" height="23.5"/>
    <rect class="st2" x="126.7" y="67.2" width="20.6" height="23.5"/>
    <rect class="st2" x="100" y="106.9" width="20.6" height="30.4"/>
    <rect class="st2" x="126.7" y="106.9" width="20.6" height="30.4"/>
    <rect class="st2" x="153.4" y="106.9" width="20.6" height="30.4"/>
    <rect class="st2" x="180.1" y="106.9" width="20.6" height="30.4"/>
    <rect class="st2" x="206.9" y="106.9" width="20.6" height="30.4"/>
    <rect class="st2" x="100" y="96.5" width="135" height="4.6"/>
    <rect class="st1" x="64" y="56.8" width="31.2" height="86.4"/>
    <path class="st9" d="M169.3,141.8h-40.2v-15.6c0-11.1,9-20.1,20.1-20.1s20.1,9,20.1,20.1v15.6ZM134.5,136.4h29.3v-10.2c0-8.1-6.6-14.7-14.7-14.7s-14.7,6.6-14.7,14.7v10.2Z"/>
    <path class="st10" d="M157.4,177l-4.9-21.7c2.2-1.2,3.7-3.6,3.6-6.4-.1-3.5-3-6.4-6.5-6.6-3.9-.2-7.2,3-7.2,6.9s1.5,4.9,3.6,6.1l-4.9,21.7c-.3,1.4.8,2.7,2.2,2.7h11.9c1.4,0,2.5-1.3,2.2-2.7h0Z"/>
    <rect class="st0" width="300" height="200"/>
    <path class="st10" d="M118.9,141.4v38.9c0,5.5,4.4,9.9,9.9,9.9h40.2c5.5,0,9.9-4.4,9.9-9.9v-38.9h-60,0Z"/>
    <rect class="st7" x="120.9" y="132.2" width="56" height="56" rx="7.9" ry="7.9"/>
  </g>
  <g>
    <path class="st8" d="M148.4,168.3c-1.6-3.3-4.3-5.9-7.5-7.5-.5-.2-.5-.9,0-1.1,3.3-1.6,5.9-4.3,7.5-7.5.2-.5.9-.5,1.1,0,1.6,3.3,4.3,5.9,7.5,7.5.5.2.5.9,0,1.1-3.3,1.6-5.9,4.3-7.5,7.5-.2.5-.9.5-1.1,0Z"/>
    <path class="st8" d="M133.8,162.2c3.6,0,6.9,1.5,9.2,3.8,2.4,2.4,3.8,5.6,3.8,9.2v.2c0,1.5-1.5,2.6-2.9,2.2-6-1.7-10.8-6.5-12.5-12.5-.4-1.4.7-2.9,2.2-2.9h.2Z"/>
    <path class="st8" d="M146.9,145.1c0,3.6-1.5,6.9-3.8,9.2-2.4,2.4-5.6,3.8-9.2,3.8h-.2c-1.5,0-2.6-1.5-2.2-2.9,1.7-6.1,6.5-10.8,12.5-12.5,1.4-.4,2.9.7,2.9,2.2v.2Z"/>
    <path class="st8" d="M151,175.3c0-3.6,1.5-6.9,3.8-9.2,2.4-2.4,5.6-3.8,9.2-3.8h.2c1.5,0,2.6,1.5,2.2,2.9-1.7,6.1-6.5,10.8-12.5,12.5-1.4.4-2.9-.7-2.9-2.2v-.2Z"/>
    <path class="st8" d="M164.1,158.1c-3.6,0-6.9-1.5-9.2-3.8-2.4-2.4-3.8-5.6-3.8-9.2v-.2c0-1.5,1.5-2.6,2.9-2.2,6.1,1.7,10.8,6.5,12.5,12.5.4,1.4-.7,2.9-2.2,2.9h-.2Z"/>
  </g>
</svg>