<svg width="80" height="81" viewBox="0 0 80 81" fill="none" xmlns="http://www.w3.org/2000/svg">
<path d="M74.5641 5.7937H5.43594C2.52469 5.7937 0.15625 8.1623 0.15625 11.0734V59.5812C0.15625 62.4923 2.52469 64.8607 5.43594 64.8607H23.2806L19.4556 71.4245C19.1128 72.0126 19.1084 72.7123 19.4439 73.2962C19.7803 73.8818 20.4059 74.2456 21.0766 74.2456H58.9234C59.5939 74.2456 60.2195 73.8818 60.5561 73.2962C60.8916 72.7124 60.8873 72.0128 60.5445 71.4245L56.7197 64.8607H74.5641C77.4752 64.8607 79.8438 62.4923 79.8438 59.5812V11.0734C79.8438 8.1623 77.4753 5.7937 74.5641 5.7937ZM5.43594 8.2937H74.5641C76.0967 8.2937 77.3438 9.54058 77.3438 11.0734V57.1762H2.65625V11.0734C2.65625 9.54073 3.90313 8.2937 5.43594 8.2937ZM57.8381 71.7456H22.162L26.1741 64.8609H53.8261L57.8381 71.7456ZM74.5641 62.3607H5.43594C3.93531 62.3607 2.71172 61.1646 2.66109 59.6762H77.3389C77.2883 61.1646 76.0647 62.3607 74.5641 62.3607ZM19.6675 36.3075C21.1978 36.3075 22.5059 35.3401 23.0139 33.985H24.5564V35.1035C24.5564 35.4351 24.6881 35.753 24.9225 35.9874C25.1569 36.2218 25.4749 36.3535 25.8064 36.3535H27.1986C27.3291 36.8162 27.485 37.2713 27.6655 37.7168H25.548C25.3531 37.7168 25.161 37.7624 24.9869 37.8498C24.8127 37.9373 24.6615 38.0643 24.5452 38.2206L22.5972 40.8381C22.274 40.744 21.9391 40.6962 21.6025 40.696C19.6327 40.696 18.03 42.2987 18.03 44.2685C18.03 46.2384 19.6327 47.841 21.6025 47.841C23.5723 47.841 25.175 46.2384 25.175 44.2685C25.175 43.555 24.9639 42.8901 24.602 42.3317L26.1759 40.2167H27.4014C27.1687 40.4514 27.0384 40.7688 27.0391 41.0993C27.0398 41.4298 27.1713 41.7466 27.405 41.9804L30.7547 45.3301C30.9885 45.5638 31.3053 45.6953 31.6358 45.696C31.9664 45.6967 32.2837 45.5664 32.5184 45.3337V46.559L30.4036 48.1329C29.8271 47.7584 29.1542 47.5593 28.4667 47.5598C26.4969 47.5598 24.8942 49.1624 24.8942 51.1323C24.8942 53.1021 26.4969 54.7048 28.4667 54.7048C30.4366 54.7048 32.0392 53.1021 32.0392 51.1323C32.0392 50.7871 31.9891 50.4535 31.8972 50.1376L34.5147 48.1896C34.671 48.0733 34.798 47.9221 34.8854 47.7479C34.9729 47.5738 35.0184 47.3817 35.0184 47.1868V45.0696C35.464 45.2501 35.9191 45.406 36.3817 45.5365V46.9287C36.3817 47.2602 36.5134 47.5782 36.7478 47.8126C36.9823 48.047 37.3002 48.1787 37.6317 48.1787H38.75V49.7212C37.3948 50.229 36.4275 51.5373 36.4275 53.0676C36.4275 55.0374 38.0302 56.6401 40 56.6401C41.9698 56.6401 43.5725 55.0374 43.5725 53.0676C43.5725 51.5373 42.6052 50.2292 41.25 49.7212V48.1787H42.3686C42.7001 48.1787 43.0181 48.047 43.2525 47.8126C43.4869 47.5782 43.6186 47.2602 43.6186 46.9287V45.5365C44.0812 45.4059 44.5363 45.25 44.9819 45.0696V47.1873C44.9819 47.3821 45.0274 47.5743 45.1149 47.7484C45.2024 47.9225 45.3293 48.0738 45.4856 48.1901L48.1033 50.1381C48.0092 50.4613 47.9614 50.7962 47.9613 51.1328C47.9613 53.1026 49.5639 54.7053 51.5338 54.7053C53.5036 54.7053 55.1062 53.1026 55.1062 51.1328C55.1062 49.1629 53.5036 47.5603 51.5338 47.5603C50.8462 47.5597 50.1734 47.7588 49.5969 48.1334L47.4819 46.5595V45.334C47.7166 45.5667 48.034 45.697 48.3645 45.6963C48.695 45.6957 49.0118 45.5641 49.2456 45.3304L52.5953 41.9807C52.829 41.747 52.9605 41.4301 52.9612 41.0996C52.9619 40.7691 52.8316 40.4517 52.5989 40.217H53.8244L55.3983 42.332C55.0238 42.9085 54.8247 43.5814 54.8253 44.2689C54.8253 46.2387 56.428 47.8414 58.3978 47.8414C60.3677 47.8414 61.9703 46.2387 61.9703 44.2689C61.9703 42.299 60.3677 40.6964 58.3978 40.6964C58.0527 40.6964 57.7191 40.7465 57.4031 40.8384L55.4552 38.2209C55.3388 38.0646 55.1876 37.9376 55.0135 37.8501C54.8393 37.7627 54.6472 37.7171 54.4523 37.7171H52.3344C52.5149 37.2716 52.6707 36.8165 52.8013 36.3539H54.1936C54.5251 36.3539 54.8431 36.2222 55.0775 35.9877C55.3119 35.7533 55.4436 35.4354 55.4436 35.1039V33.9853H56.9861C57.4939 35.3404 58.8022 36.3078 60.3325 36.3078C62.3023 36.3078 63.9052 34.7051 63.9052 32.7353C63.9052 30.7654 62.3025 29.1628 60.3325 29.1628C58.8022 29.1628 57.4941 30.1301 56.9861 31.4853H55.4436V30.3667C55.4436 30.0351 55.3119 29.7172 55.0775 29.4828C54.8431 29.2484 54.5251 29.1167 54.1936 29.1167H52.8013C52.6707 28.654 52.5148 28.1989 52.3344 27.7534H54.4522C54.647 27.7534 54.8392 27.7079 55.0133 27.6204C55.1874 27.5329 55.3387 27.406 55.455 27.2496L57.403 24.6321C57.7262 24.7262 58.061 24.7741 58.3977 24.7742C60.3675 24.7742 61.9702 23.1715 61.9702 21.2017C61.9702 19.2318 60.3675 17.6292 58.3977 17.6292C56.4278 17.6292 54.8252 19.2318 54.8252 21.2017C54.8252 21.9153 55.0363 22.5801 55.3981 23.1385L53.8242 25.2535H52.5987C52.8315 25.0188 52.9617 24.7015 52.961 24.371C52.9603 24.0404 52.8287 23.7237 52.595 23.49L49.2453 20.1403C49.0115 19.9066 48.6947 19.775 48.3642 19.7744C48.0336 19.7737 47.7163 19.904 47.4816 20.1367V18.911L49.5966 17.3371C50.1731 17.7116 50.846 17.9107 51.5334 17.9101C53.5033 17.9101 55.1059 16.3075 55.1059 14.3376C55.1059 12.3678 53.5033 10.7651 51.5334 10.7651C49.5636 10.7651 47.9609 12.3678 47.9609 14.3376C47.9609 14.6828 48.0111 15.0164 48.103 15.3323L45.4853 17.2803C45.329 17.3966 45.202 17.5478 45.1146 17.722C45.0271 17.8961 44.9815 18.0882 44.9816 18.2831V20.4009C44.536 20.2204 44.0809 20.0645 43.6183 19.9339V18.5415C43.6183 18.21 43.4866 17.8921 43.2522 17.6576C43.0177 17.4232 42.6998 17.2915 42.3683 17.2915H41.25V15.749C42.6052 15.2412 43.5725 13.9329 43.5725 12.4026C43.5725 10.4328 41.9698 8.82995 40 8.82995C38.0302 8.82995 36.4275 10.4326 36.4275 12.4026C36.4275 13.9329 37.3948 15.241 38.75 15.749V17.2915H37.6314C37.2999 17.2915 36.9819 17.4232 36.7475 17.6576C36.5131 17.8921 36.3814 18.21 36.3814 18.5415V19.9339C35.9188 20.0644 35.4637 20.2203 35.0181 20.4007V18.2829C35.0181 18.0881 34.9726 17.8959 34.8851 17.7218C34.7977 17.5477 34.6707 17.3964 34.5144 17.2801L31.8969 15.332C31.991 15.0088 32.0388 14.6739 32.0389 14.3373C32.0389 12.3675 30.4362 10.7648 28.4664 10.7648C26.4966 10.7648 24.8939 12.3675 24.8939 14.3373C24.8939 16.3071 26.4966 17.9098 28.4664 17.9098C29.18 17.9098 29.8448 17.6987 30.4033 17.3368L32.5183 18.9107V20.1362C32.2836 19.9035 31.9662 19.7732 31.6357 19.7739C31.3051 19.7746 30.9883 19.9061 30.7545 20.1398L27.4048 23.4895C27.1711 23.7232 27.0395 24.04 27.0388 24.3705C27.0381 24.701 27.1684 25.0184 27.4011 25.2531H26.1758L24.6019 23.1381C24.9764 22.5615 25.1754 21.8887 25.1748 21.2012C25.1748 19.2314 23.5722 17.6287 21.6023 17.6287C19.6325 17.6287 18.0298 19.2314 18.0298 21.2012C18.0298 23.171 19.6325 24.7737 21.6023 24.7737C21.9475 24.7737 22.2811 24.7235 22.597 24.6317L24.545 27.2492C24.6613 27.4055 24.8126 27.5325 24.9867 27.6199C25.1608 27.7074 25.353 27.7529 25.5478 27.7529H27.6655C27.485 28.1985 27.3291 28.6536 27.1986 29.1162H25.8064C25.4749 29.1162 25.1569 29.2479 24.9225 29.4823C24.6881 29.7167 24.5564 30.0347 24.5564 30.3662V31.4848H23.0139C22.5061 30.1296 21.1978 29.1623 19.6675 29.1623C17.6977 29.1623 16.0948 30.765 16.0948 32.7348C16.0948 34.7046 17.6975 36.3075 19.6675 36.3075ZM21.6023 45.3412C21.0109 45.3412 20.5298 44.8601 20.5298 44.2687C20.5298 43.6773 21.0109 43.1962 21.6023 43.1962C22.1938 43.1962 22.6748 43.6773 22.6748 44.2687C22.6748 44.8601 22.1938 45.3412 21.6023 45.3412ZM28.4664 52.2053C27.875 52.2053 27.3939 51.7242 27.3939 51.1328C27.3939 50.5414 27.875 50.0603 28.4664 50.0603C29.0578 50.0603 29.5389 50.5414 29.5389 51.1328C29.5389 51.7242 29.0577 52.2053 28.4664 52.2053ZM40 54.1401C39.4086 54.1401 38.9275 53.659 38.9275 53.0676C38.9275 52.4762 39.4086 51.9951 40 51.9951C40.5914 51.9951 41.0725 52.4762 41.0725 53.0676C41.0725 53.659 40.5914 54.1401 40 54.1401ZM51.5336 50.0601C52.125 50.0601 52.6061 50.5412 52.6061 51.1326C52.6061 51.724 52.125 52.2051 51.5336 52.2051C50.9422 52.2051 50.4611 51.724 50.4611 51.1326C50.4611 50.5412 50.9423 50.0601 51.5336 50.0601ZM59.4702 44.2687C59.4702 44.8601 58.9891 45.3412 58.3977 45.3412C57.8062 45.3412 57.3252 44.8601 57.3252 44.2687C57.3252 43.6773 57.8062 43.1962 58.3977 43.1962C58.9891 43.1962 59.4702 43.6773 59.4702 44.2687ZM60.3325 31.6625C60.9239 31.6625 61.4052 32.1435 61.4052 32.735C61.4052 33.3264 60.9239 33.8075 60.3325 33.8075C59.7411 33.8075 59.26 33.3264 59.26 32.735C59.26 32.1435 59.7411 31.6625 60.3325 31.6625ZM58.3977 20.1287C58.9891 20.1287 59.4702 20.6098 59.4702 21.2012C59.4702 21.7926 58.9891 22.2737 58.3977 22.2737C57.8062 22.2737 57.3252 21.7926 57.3252 21.2012C57.3255 20.9169 57.4386 20.6443 57.6397 20.4432C57.8407 20.2421 58.1133 20.129 58.3977 20.1287ZM51.5336 13.2648C52.125 13.2648 52.6061 13.7459 52.6061 14.3373C52.6061 14.9287 52.125 15.4098 51.5336 15.4098C50.9422 15.4098 50.4611 14.9287 50.4611 14.3373C50.4611 13.7459 50.9423 13.2648 51.5336 13.2648ZM40 11.3298C40.5914 11.3298 41.0725 11.811 41.0725 12.4025C41.0725 12.9939 40.5914 13.475 40 13.475C39.4086 13.475 38.9275 12.9939 38.9275 12.4025C38.9275 11.811 39.4086 11.3298 40 11.3298ZM28.4664 15.4098C27.875 15.4098 27.3939 14.9287 27.3939 14.3373C27.3939 13.7459 27.875 13.2648 28.4664 13.2648C29.0578 13.2648 29.5389 13.7459 29.5389 14.3373C29.5389 14.9287 29.0577 15.4098 28.4664 15.4098ZM20.5298 21.2014C20.5298 20.61 21.0109 20.1289 21.6023 20.1289C22.1938 20.1289 22.6748 20.61 22.6748 21.2014C22.6748 21.7928 22.1938 22.2739 21.6023 22.2739C21.0109 22.2739 20.5298 21.7926 20.5298 21.2014ZM27.0564 31.6164H28.1831C28.4722 31.6164 28.7524 31.5162 28.9759 31.3328C29.1995 31.1494 29.3525 30.8943 29.4091 30.6107C29.6833 29.2305 30.2273 27.918 31.01 26.7485C31.1705 26.5081 31.2427 26.2195 31.2142 25.9318C31.1858 25.6442 31.0585 25.3752 30.8541 25.1709L30.0566 24.3734L31.6386 22.7914L32.4361 23.5889C32.6405 23.7933 32.9095 23.9205 33.1971 23.9489C33.4848 23.9773 33.7735 23.9051 34.0139 23.7446C35.1834 22.962 36.496 22.418 37.8763 22.1439C38.1597 22.0873 38.4149 21.9343 38.5982 21.7108C38.7815 21.4873 38.8817 21.2071 38.8817 20.9181V19.7912H41.1188V20.9181C41.1187 21.2072 41.2189 21.4874 41.4023 21.7109C41.5857 21.9344 41.8408 22.0875 42.1244 22.144C43.5046 22.4183 44.817 22.9624 45.9866 23.745C46.227 23.9054 46.5156 23.9775 46.8033 23.9491C47.0909 23.9207 47.3598 23.7934 47.5642 23.589L48.3619 22.7914L49.9438 24.3734L49.1463 25.171C48.9418 25.3754 48.8145 25.6444 48.7861 25.9321C48.7577 26.2197 48.8298 26.5084 48.9903 26.7489C49.7729 27.9183 50.317 29.2308 50.5912 30.611C50.6478 30.8945 50.8008 31.1496 51.0243 31.333C51.2478 31.5163 51.528 31.6165 51.817 31.6165H52.9439V33.8535H51.817C51.5279 33.8535 51.2477 33.9537 51.0242 34.1371C50.8007 34.3205 50.6476 34.5756 50.5911 34.8592C50.3169 36.2394 49.7729 37.5519 48.9902 38.7214C48.8297 38.9618 48.7576 39.2504 48.786 39.5381C48.8145 39.8257 48.9417 40.0946 49.1461 40.299L49.9436 41.0965L48.3616 42.6784L47.5641 41.8809C47.3597 41.6765 47.0907 41.5492 46.803 41.5208C46.5154 41.4923 46.2267 41.5645 45.9863 41.725C44.8167 42.5076 43.5042 43.0517 42.1239 43.3259C41.8404 43.3824 41.5853 43.5355 41.402 43.759C41.2187 43.9825 41.1185 44.2626 41.1184 44.5517V45.6784H38.8814V44.5517C38.8814 44.2626 38.7812 43.9824 38.5979 43.7588C38.4145 43.5353 38.1593 43.3823 37.8758 43.3257C36.4955 43.0516 35.183 42.5075 34.0136 41.7248C33.7731 41.5644 33.4845 41.4922 33.1969 41.5207C32.9092 41.5491 32.6403 41.6763 32.4359 41.8807L31.6384 42.6782L30.0566 41.0962L30.8541 40.2987C31.0585 40.0943 31.1858 39.8254 31.2142 39.5377C31.2426 39.25 31.1705 38.9613 31.01 38.7209C30.2273 37.5514 29.6833 36.2388 29.4092 34.8585C29.3527 34.575 29.1996 34.3199 28.9761 34.1365C28.7526 33.9532 28.4724 33.8529 28.1833 33.8529H27.0566V31.6164H27.0564ZM19.6675 31.6625C20.2589 31.6625 20.74 32.1435 20.74 32.735C20.74 33.3264 20.2589 33.8075 19.6675 33.8075C19.0761 33.8075 18.5948 33.3264 18.5948 32.735C18.5948 32.1435 19.0759 31.6625 19.6675 31.6625ZM40 41.8323C45.0163 41.8323 49.0975 37.7512 49.0975 32.735C49.0975 27.7187 45.0163 23.6376 40 23.6376C34.9837 23.6376 30.9025 27.7187 30.9025 32.735C30.9025 37.7512 34.9837 41.8323 40 41.8323ZM40 26.1376C43.6378 26.1376 46.5975 29.0971 46.5975 32.735C46.5975 36.3728 43.6378 39.3323 40 39.3323C36.3622 39.3323 33.4025 36.3728 33.4025 32.735C33.4025 29.0971 36.3622 26.1376 40 26.1376ZM38.75 34.8057V36.3501C38.75 36.6816 38.8817 36.9996 39.1161 37.234C39.3505 37.4684 39.6685 37.6001 40 37.6001C40.3315 37.6001 40.6495 37.4684 40.8839 37.234C41.1183 36.9996 41.25 36.6816 41.25 36.3501V34.8057C42.6098 34.2975 43.5808 32.9854 43.5808 31.4506C43.5808 29.4762 41.9745 27.8698 40 27.8698C38.0255 27.8698 36.4192 29.476 36.4192 31.4506C36.4192 32.9856 37.3902 34.2975 38.75 34.8057ZM40 30.37C40.5959 30.37 41.0808 30.8548 41.0808 31.4507C41.0808 32.0467 40.5959 32.5315 40 32.5315C39.4041 32.5315 38.9192 32.0467 38.9192 31.4507C38.9192 30.8548 39.4041 30.37 40 30.37Z" fill="#55E6A5"/>
</svg>
