<svg width="80" height="81" viewBox="0 0 80 81" fill="none" xmlns="http://www.w3.org/2000/svg">
<g clip-path="url(#clip0_851_205)">
<path d="M72.8967 70.342H7.10329C4.74126 70.342 2.82642 68.4272 2.82642 66.0652V33.5942H77.1736V66.0653C77.1736 68.4272 75.2588 70.342 72.8967 70.342Z" fill="#B9B9B9"/>
<path d="M72.5594 33.5938V61.9695C72.5594 64.045 70.8769 65.7277 68.8013 65.7277H2.82642V66.065C2.82642 68.427 4.74126 70.3419 7.10329 70.3419H72.8967C75.2588 70.3419 77.1736 68.427 77.1736 66.065V33.5938H72.5594Z" fill="#B2B2B2"/>
<path d="M2.82654 33.5945H72.5593V39.6401H2.82654V33.5945Z" fill="#C6C6C6"/>
<path d="M28.6067 23.3787V14.0294C28.6067 13.9408 28.6786 13.869 28.7672 13.869H51.2328C51.3214 13.869 51.3933 13.9408 51.3933 14.0294V23.3787L55.5654 23.3396V14.0294C55.5654 11.6366 53.6256 9.69678 51.2328 9.69678H28.7672C26.3744 9.69678 24.4345 11.6366 24.4345 14.0294V23.3787H28.6067Z" fill="#CCCCCC"/>
<path d="M78.7464 35.6264H1.25359C0.92112 35.6264 0.602264 35.4943 0.367169 35.2592C0.132075 35.0242 0 34.7053 0 34.3728L0 26.6931C0 24.3311 1.91484 22.4163 4.27688 22.4163H75.7231C78.0852 22.4163 80 24.3311 80 26.6931V34.3728C80 34.5375 79.9676 34.7005 79.9046 34.8526C79.8416 35.0047 79.7493 35.1429 79.6329 35.2593C79.5165 35.3757 79.3783 35.468 79.2262 35.531C79.0741 35.594 78.911 35.6264 78.7464 35.6264Z" fill="#DEDEDE"/>
<path d="M75.7231 22.4163H71.1089C73.4709 22.4163 75.3858 24.3311 75.3858 26.6931V34.3728C75.3858 34.7053 75.2537 35.0242 75.0186 35.2592C74.7835 35.4943 74.4646 35.6264 74.1322 35.6264H78.7464C79.0789 35.6264 79.3977 35.4943 79.6328 35.2592C79.8679 35.0242 80 34.7053 80 34.3728V26.6931C80 24.3311 78.0851 22.4163 75.7231 22.4163Z" fill="#D5D0D1"/>
<path d="M22.1053 43.4329H16.8923C15.9164 43.4329 15.1253 42.6418 15.1253 41.6659V32.0847C15.1253 31.1087 15.9164 30.3176 16.8923 30.3176H22.1053C23.0812 30.3176 23.8723 31.1087 23.8723 32.0847V41.6659C23.8723 42.642 23.0812 43.4329 22.1053 43.4329ZM63.1077 43.4329H57.8947C56.9187 43.4329 56.1277 42.6418 56.1277 41.6659V32.0847C56.1277 31.1087 56.9187 30.3176 57.8947 30.3176H63.1077C64.0836 30.3176 64.8747 31.1087 64.8747 32.0847V41.6659C64.8748 42.642 64.0836 43.4329 63.1077 43.4329Z" fill="#55E6A5"/>
<path d="M63.1077 30.3176H60.2606V43.4331H63.1077C64.0836 43.4331 64.8747 42.642 64.8747 41.6661V32.0848C64.8747 31.1087 64.0836 30.3176 63.1077 30.3176ZM22.1053 30.3176H19.2583V43.4331H22.1053C23.0813 43.4331 23.8724 42.642 23.8724 41.6661V32.0848C23.8724 31.1087 23.0813 30.3176 22.1053 30.3176Z" fill="#49D998"/>
</g>
<defs>
<clipPath id="clip0_851_205">
<rect width="80" height="80" fill="white" transform="translate(0 0.0195312)"/>
</clipPath>
</defs>
</svg>
