<svg fill="none" height="3925" viewBox="0 0 2701 3925" width="2701" xmlns="http://www.w3.org/2000/svg" xmlns:xlink="http://www.w3.org/1999/xlink"><filter id="a" color-interpolation-filters="sRGB" filterUnits="userSpaceOnUse" height="583.521" width="1381.27" x="660.345" y="2339.41"><feFlood flood-opacity="0" result="BackgroundImageFix"/><feBlend in="SourceGraphic" in2="BackgroundImageFix" mode="normal" result="shape"/><feColorMatrix in="SourceAlpha" result="hardAlpha" type="matrix" values="0 0 0 0 0 0 0 0 0 0 0 0 0 0 0 0 0 0 127 0"/><feOffset/><feGaussianBlur stdDeviation="17.5"/><feComposite in2="hardAlpha" k2="-1" k3="1" operator="arithmetic"/><feColorMatrix type="matrix" values="0 0 0 0 0 0 0 0 0 0 0 0 0 0 0 0 0 0 0.64 0"/><feBlend in2="shape" mode="normal" result="effect1_innerShadow"/></filter><filter id="b" color-interpolation-filters="sRGB" filterUnits="userSpaceOnUse" height="925" width="1850" x="425" y="1272"><feFlood flood-opacity="0" result="BackgroundImageFix"/><feBlend in="SourceGraphic" in2="BackgroundImageFix" mode="normal" result="shape"/><feColorMatrix in="SourceAlpha" result="hardAlpha" type="matrix" values="0 0 0 0 0 0 0 0 0 0 0 0 0 0 0 0 0 0 127 0"/><feOffset/><feGaussianBlur stdDeviation="17.5"/><feComposite in2="hardAlpha" k2="-1" k3="1" operator="arithmetic"/><feColorMatrix type="matrix" values="0 0 0 0 0 0 0 0 0 0 0 0 0 0 0 0 0 0 0.64 0"/><feBlend in2="shape" mode="normal" result="effect1_innerShadow"/></filter><linearGradient id="c" gradientUnits="userSpaceOnUse" x1="1801.69" x2="2773.04" y1="1816.06" y2="843.718"><stop offset="0" stop-color="#46ff47"/><stop offset="1" stop-color="#9cff9d"/></linearGradient><linearGradient id="d" gradientUnits="userSpaceOnUse" x1="1566.99" x2="1896.78" y1="1795.81" y2="1223.9"><stop offset="0" stop-color="#10d9ed"/><stop offset="1" stop-color="#10d9ed" stop-opacity=".3"/></linearGradient><linearGradient id="e" gradientUnits="userSpaceOnUse" x1="1460.48" x2="1649.76" y1="2039.52" y2="1535.91"><stop offset="0" stop-color="#fa51d3"/><stop offset=".958774" stop-color="#fa51d3" stop-opacity="0"/></linearGradient><linearGradient id="f" gradientUnits="userSpaceOnUse" x1="1002.5" x2="1306.54" y1="2823" y2="2013.26"><stop offset="0" stop-color="#ffe700"/><stop offset="1" stop-color="#ffe700" stop-opacity="0"/></linearGradient><linearGradient id="g"><stop offset="0"/><stop offset="1" stop-opacity=".65"/></linearGradient><linearGradient id="h" gradientUnits="userSpaceOnUse" x1="1351.01" x2="1351.01" xlink:href="#g" y1="2337.16" y2="2922.93"/><linearGradient id="i"><stop offset=".75" stop-color="#fff"/><stop offset="1" stop-color="#dededf"/></linearGradient><linearGradient id="j" gradientUnits="userSpaceOnUse" x1="1540.35" x2="1540.35" xlink:href="#i" y1="2421.97" y2="2579.76"/><linearGradient id="k" gradientUnits="userSpaceOnUse" x1="1020.38" x2="1020.37" xlink:href="#i" y1="1469.78" y2="1993.67"/><linearGradient id="l" gradientUnits="userSpaceOnUse" x1="1677.62" x2="1677.63" xlink:href="#i" y1="1469.78" y2="1993.67"/><linearGradient id="m" gradientUnits="userSpaceOnUse" x1="1350" x2="1350" xlink:href="#g" y1="1272" y2="2197"/><path d="m0 1123.78c0-87.14 70.642-157.78 157.783-157.78h2384.497c87.15 0 157.79 70.64 157.79 157.78v785.96c0 745.6-604.43 1350.04-1350.04 1350.04-745.599 0-1350.03-604.44-1350.03-1350.04z" fill="url(#c)"/><g clip-rule="evenodd" fill-rule="evenodd"><path d="m2593.17 2437.3c-205.4 483.53-684.67 822.64-1243.14 822.64-745.599 0-1350.03-604.43-1350.03-1350.04v-567.74c256.416-141.58 551.223-222.16 864.85-222.16 825.32 0 1520.32 557.99 1728.32 1317.3z" fill="url(#d)"/><path d="m2270.38 2898.52c-241.14 224.78-564.68 362.32-920.35 362.32-745.599 0-1350.03-604.43-1350.03-1350.04v-144.32c228.495-142.89 498.568-225.48 787.931-225.48 777.859 0 1416.319 596.82 1482.449 1357.52z" fill="url(#e)"/><path d="m1804.3 3188.71c-28.08-623.15-540.3-1119.71-1168.078-1119.71-218.19 0-422.423 59.98-597.222 164.42 108.688 445.31 436.344 804.34 861.894 955.56v75.46c0 109.25 58.696 204.74 146.166 256.44v205.49c0 109.49 88.43 198.24 197.51 198.24h215.29c109.09 0 197.52-88.75 197.52-198.24v-205.49c87.47-51.7 146.16-147.19 146.16-256.44v-75.46c.26-.09.51-.18.76-.27z" fill="url(#f)"/></g><path d="m504 60c0-33.1371 26.863-60 60-60h274c33.137 0 60 26.8629 60 60v906h-394z" fill="#031514"/><path d="m1792 60c0-33.1371 26.86-60 60-60h274c33.14 0 60 26.8629 60 60v906h-394z" fill="#031514"/><g filter="url(#a)"><path d="m672.133 2339.6c-6.337-1.24-12.173 3.79-11.768 10.24 20.063 319.47 321.622 573.09 690.685 573.09 368.22 0 669.24-252.45 690.55-570.88.43-6.45-5.39-11.51-11.73-10.29-214.78 41.36-445.87 81.66-678.82 81.66-237.03 0-461.18-41.08-678.917-83.82z" fill="url(#h)"/></g><path d="m703.109 2390.42c11.882 100.37 304.311 222.87 652.381 222.87 347.28 0 634.29-122.81 647.36-222.87-203.17 13.01-219.91 77.72-647.36 77.72-449.235 0-446.084-64.28-652.381-77.72z" fill="url(#j)"/><path d="m1299 1734.95c-101.57 186.46-260.34 374.89-443.766 369.96-187.354 0-339.234-165.64-339.234-369.96s151.88-369.95 339.234-369.95c187.356 0 325.426 163.77 443.766 369.95z" fill="url(#k)"/><path d="m1399 1735.49c101.57 182.75 260.34 374.26 443.77 369.42 187.35 0 339.23-169.16 339.23-369.42s-150.89-370.49-338.25-370.49c-187.35 0-326.41 168.4-444.75 370.49z" fill="url(#l)"/><circle cx="987.542" cy="1797.18" fill="#031514" r="89.1743"/><circle cx="1018.7" cy="1836.94" fill="#fff" r="30.0829"/><circle cx="1711.37" cy="1797.18" fill="#031514" r="89.1743"/><circle cx="1742.53" cy="1836.94" fill="#fff" r="30.0829"/><path d="m1300.87 1738.58-782.898 40.42c-1.689-14.79-2.951-21.69-2.953-32.53-1.972-217.86 150.864-383.47 343.136-383.47 192.275 0 342.135 190.26 440.745 370.65-.83 1.52 2.81 3.41 1.97 4.93z" fill="#031514"/><path d="m1397.13 1738.58 783.7 40.42c1.69-14.79 1.95-21.69 1.95-32.53 6.93-213.92-150.83-383.47-343.05-383.47s-342.05 190.26-440.63 370.65c.83 1.52-2.81 3.41-1.97 4.93z" fill="#031514"/><g filter="url(#b)"><path d="m1838.17 1272c-238.68 0-412.41 238.33-488.17 365.52-75.76-127.19-249.49-365.52-488.169-365.52-240.904 0-436.831 207.49-436.831 462.5s195.927 462.5 436.831 462.5c238.649 0 412.409-238.33 488.169-365.55 75.76 127.22 249.49 365.55 488.17 365.55 240.9 0 436.83-207.49 436.83-462.5s-195.93-462.5-436.83-462.5zm-976.339 832.5c-189.856 0-344.331-165.98-344.331-370s154.475-370 344.331-370c225.559 0 394.479 290.83 436.309 370-41.83 79.17-210.72 370-436.309 370zm976.339 0c-225.56 0-394.48-290.83-436.31-370 41.83-79.17 210.75-370 436.31-370 189.86 0 344.33 165.98 344.33 370s-154.47 370-344.33 370z" fill="url(#m)"/></g></svg>