<?xml version="1.0" encoding="UTF-8"?>
<svg id="Layer_1" xmlns="http://www.w3.org/2000/svg" version="1.1" viewBox="0 0 500 500">
  <!-- Generator: Adobe Illustrator 29.0.0, SVG Export Plug-In . SVG Version: 2.1.0 Build 186)  -->
  <defs>
    <style>
      .st0 {
        fill: #55e6a5;
      }
    </style>
  </defs>
  <path class="st0" d="M434.2,178H34.3c-5,0-9-4-9-9s4-9,9-9h399.9c5,0,9,4,9,9s-4,9-9,9Z"/>
  <path class="st0" d="M107.6,140.6c-16.5,0-29.9-13.4-29.9-29.8s13.4-29.8,29.9-29.8,29.9,13.4,29.9,29.8-13.4,29.8-29.9,29.8ZM107.6,99c-6.5,0-11.9,5.3-11.9,11.8s5.3,11.8,11.9,11.8,11.9-5.3,11.9-11.8-5.3-11.8-11.9-11.8Z"/>
  <path class="st0" d="M367.4,140.6h-78.5c-16.5,0-29.9-13.4-29.9-29.8s13.4-29.8,29.9-29.8h78.5c16.5,0,29.9,13.4,29.9,29.8s-13.4,29.8-29.9,29.8ZM288.8,99c-6.5,0-11.9,5.3-11.9,11.8s5.3,11.8,11.9,11.8h78.5c6.5,0,11.9-5.3,11.9-11.8s-5.3-11.8-11.9-11.8h-78.5Z"/>
  <path class="st0" d="M184.6,140.6c-16.5,0-29.9-13.4-29.9-29.8s13.4-29.8,29.9-29.8,29.9,13.4,29.9,29.8-13.4,29.8-29.9,29.8ZM184.6,99c-6.5,0-11.9,5.3-11.9,11.8s5.3,11.8,11.9,11.8,11.9-5.3,11.9-11.8-5.3-11.8-11.9-11.8Z"/>
  <path class="st0" d="M150.5,319.1c-.7,0-1.4,0-2.1-.2-4.8-1.2-7.8-6-6.7-10.8l17.6-73.5c1.2-4.8,6-7.8,10.8-6.7,4.8,1.2,7.8,6,6.7,10.8l-17.6,73.5c-1,4.1-4.7,6.9-8.7,6.9Z"/>
  <path class="st0" d="M208.6,312.4c-2.1,0-4.3-.8-6-2.3-3.7-3.3-4-9-.7-12.7l21.5-24.1-21.5-24.1c-3.3-3.7-3-9.4.7-12.7,3.7-3.3,9.4-3,12.7.7l24.9,27.9c4.1,4.6,4.1,11.8,0,16.4l-24.8,27.9c-1.8,2-4.2,3-6.7,3ZM226.7,277.1s0,0,0,0h0ZM226.7,269.5s0,0,0,0h0Z"/>
  <path class="st0" d="M110.1,312.4c-2.5,0-4.9-1-6.7-3l-24.9-27.9c-4.1-4.6-4.1-11.8,0-16.4l24.8-27.9c3.3-3.7,9-4,12.7-.7,3.7,3.3,4,9,.7,12.7l-21.5,24.1,21.5,24.1c3.3,3.7,3,9.4-.7,12.7-1.7,1.5-3.9,2.3-6,2.3ZM92,277h0s0,0,0,0ZM91.9,269.5h0s0,0,0,0Z"/>
  <path class="st0" d="M370,471.8h-16.1c-11,0-20-9-20-20v-3.3c-5.4-1.7-10.7-3.9-15.8-6.6l-2.3,2.3c-3.8,3.8-8.8,5.8-14.1,5.8h0c-5.3,0-10.4-2.1-14.1-5.9l-11.3-11.3c-7.8-7.8-7.8-20.4,0-28.2l2.3-2.3c-2.7-5-4.9-10.3-6.6-15.8h-3.3c-11,0-20-9-20-20v-16c0-11,9-20,20-20h3.3c1.7-5.4,3.8-10.6,6.5-15.6l-2.4-2.4c-3.7-3.7-5.8-8.7-5.8-14.1,0-5.4,2.1-10.4,5.8-14.2l11.3-11.3c3.8-3.8,8.8-5.8,14.1-5.8h0c5.3,0,10.4,2.1,14.1,5.9l2.2,2.2c5.1-2.7,10.4-4.9,15.8-6.6v-3.3c0-11,9-20,20-20h16c11,0,20,9,20,20v3c5.6,1.7,11,3.9,16.2,6.7l2.3-2.3c3.7-3.7,8.7-5.8,14.1-5.8h0c5.3,0,10.4,2.1,14.1,5.8l11.3,11.3c3.8,3.8,5.9,8.8,5.8,14.2,0,5.3-2.1,10.4-5.9,14.1l-2.3,2.3c2.7,5.1,4.9,10.4,6.6,15.9h3.2c11,0,20,9,20,20v16c0,11-9,20-20,20h-3.2c-1.7,5.5-3.9,10.7-6.5,15.8l2.3,2.3c3.8,3.8,5.9,8.8,5.8,14.2,0,5.3-2.1,10.4-5.9,14.1l-11.3,11.3c-3.8,3.8-8.8,5.9-14.1,5.9h0c-5.3,0-10.4-2.1-14.1-5.9l-2.3-2.3c-5.1,2.7-10.4,4.9-15.9,6.6v3.3c0,11-9,20-20,20ZM316.6,421.7c1.6,0,3.3.4,4.8,1.4,7.3,4.6,15.3,7.9,23.5,9.7,4.1.9,7,4.6,7,8.8v10.2c0,1.1.9,2,2,2h16.1c1.1,0,2-.9,2-2v-10.2c0-4.2,2.9-7.8,7-8.8,8.4-1.9,16.3-5.2,23.6-9.8,3.5-2.2,8.2-1.7,11.1,1.2l7.2,7.2c.5.5,1,.6,1.4.6h0c.3,0,.9,0,1.4-.6l11.3-11.3c.5-.5.6-1,.6-1.4,0-.4,0-.9-.6-1.4l-7.2-7.2c-3-3-3.5-7.6-1.3-11.2,4.6-7.2,7.8-15.1,9.7-23.5.9-4.1,4.6-7,8.8-7h10.1c1.1,0,2-.9,2-2v-16c0-1-.9-2-2-2h-10.1c-4.2,0-7.8-2.9-8.8-7-1.9-8.4-5.2-16.3-9.8-23.6-2.2-3.6-1.7-8.2,1.2-11.2l7.2-7.2c.5-.5.6-1,.6-1.4,0-.4,0-.9-.6-1.4l-11.3-11.3c-.5-.5-1.1-.6-1.4-.6h0c-.4,0-.9,0-1.4.6l-7.2,7.2c-3,3-7.6,3.5-11.1,1.2-7.4-4.7-15.4-8-23.9-9.8-4.1-.9-7-4.6-7-8.8v-10c0-1.1-.9-2-2-2h-16c-1.1,0-2,.9-2,2v10.1c0,4.2-2.9,7.8-7,8.8-8.4,2-16.3,5.3-23.5,9.9-3.6,2.3-8.2,1.7-11.2-1.2l-7.1-7.1c-.5-.5-1-.6-1.4-.6h0c-.3,0-.9,0-1.4.6l-11.3,11.3c-.5.5-.6,1-.6,1.4,0,.4,0,.9.6,1.4l7.2,7.3c3,3,3.5,7.6,1.3,11.1-4.5,7.2-7.7,15.1-9.6,23.4-.9,4.1-4.6,7-8.8,7h-10.2c-1.1,0-2,.9-2,2v16c0,1.1.9,2,2,2h10.2c4.2,0,7.8,2.9,8.8,7,1.9,8.3,5.2,16.2,9.8,23.5,2.2,3.6,1.7,8.2-1.3,11.2l-7.2,7.2c-.7.7-.7,2,0,2.8l11.3,11.3c.5.5,1,.6,1.4.6h0c.3,0,.9,0,1.4-.6l7.2-7.2c1.7-1.7,4-2.6,6.4-2.6Z"/>
  <path class="st0" d="M362,412.8c-29.9,0-54.3-24.3-54.3-54.2s24.3-54.2,54.3-54.2,54.2,24.3,54.2,54.2-24.3,54.2-54.2,54.2ZM362,322.4c-20,0-36.3,16.3-36.3,36.2s16.3,36.2,36.3,36.2,36.2-16.2,36.2-36.2-16.3-36.2-36.2-36.2Z"/>
  <path class="st0" d="M268.7,386.6h-71.2c-5,0-9-4-9-9s4-9,9-9h71.2c5,0,9,4,9,9s-4,9-9,9ZM119,386.6h-52c-23,0-41.7-21.6-41.7-48V91c0-26.5,18.7-48,41.7-48h334.5c23,0,41.7,21.6,41.7,48v192.3c0,5-4,9-9,9s-9-4-9-9V91c0-16.3-10.9-30-23.7-30H67c-12.8,0-23.7,13.8-23.7,30v247.5c0,16.3,10.9,30,23.7,30h52c5,0,9,4,9,9s-4,9-9,9Z"/>
  <path class="st0" d="M158.4,386.6h-.2c-5,0-9-4-9-9s4-9,9-9h.2c5,0,9,4,9,9s-4,9-9,9Z"/>
</svg>