<svg width="94" height="94" viewBox="0 0 94 94" fill="none" xmlns="http://www.w3.org/2000/svg">
<path d="M47 93.5C72.6812 93.5 93.5 72.6812 93.5 47C93.5 21.3188 72.6812 0.5 47 0.5C21.3188 0.5 0.5 21.3188 0.5 47C0.5 72.6812 21.3188 93.5 47 93.5Z" fill="#29292A"/>
<path d="M84.3155 74.7121C79.9787 68.9061 74.3475 64.1915 67.8693 60.9432C61.3912 57.6949 54.2447 56.0023 46.9977 56C39.7508 55.9977 32.6032 57.6857 26.123 60.9298C19.6427 64.174 14.0085 68.8848 9.66797 74.6881C13.9863 80.5209 19.6113 85.2608 26.0918 88.5275C32.5724 91.7943 39.7283 93.4971 46.9857 93.4994C54.2431 93.5018 61.4 91.8036 67.8827 88.541C74.3654 85.2784 79.9934 80.5421 84.3155 74.7121Z" fill="#2F2F2F"/>
<g clip-path="url(#clip0_895_264)">
<path d="M46.9472 40.1L46.9406 40.0835L46.9329 40.0675C45.2437 36.5836 42.3967 33.845 39.0296 32.1615L39.011 32.1522L38.9917 32.1444C38.8989 32.1074 38.8989 31.9841 38.9917 31.947L39.0081 31.9404L39.0241 31.9326C42.5081 30.2434 45.2466 27.3964 46.9302 24.0293L46.9395 24.0107L46.9472 23.9914C46.9843 23.8987 47.1076 23.8987 47.1447 23.9914L47.1513 24.0079L47.159 24.0239C48.8482 27.5078 51.6952 30.2464 55.0623 31.9299L55.0809 31.9392L55.1002 31.947C55.193 31.9841 55.193 32.1074 55.1002 32.1444L55.0838 32.151L55.0678 32.1588C51.5838 33.848 48.8453 36.695 47.1617 40.0621L47.1524 40.0807L47.1447 40.1C47.1076 40.1927 46.9843 40.1927 46.9472 40.1Z" fill="#283A2F" stroke="#283A2F"/>
<path d="M42.0142 49.3256L42.0131 49.3253C36.0385 47.6325 31.2557 42.8497 29.5629 36.8751L29.5626 36.874C29.2436 35.7575 30.1336 34.543 31.3338 34.543H31.5385C35.0849 34.543 38.3372 36.0214 40.602 38.2862C42.8668 40.551 44.3453 43.8034 44.3453 47.3498V47.5545C44.3453 48.7547 43.1308 49.6447 42.0142 49.3256Z" fill="#283A2F" stroke="#283A2F"/>
<path d="M29.6649 27.0152L29.6658 27.012C31.3581 20.9397 36.1378 16.2575 42.1154 14.5639L42.1165 14.5636C43.2331 14.2446 44.4476 15.1346 44.4476 16.3347V16.5395C44.4476 20.0859 42.9691 23.3382 40.7043 25.603C38.4395 27.8678 35.1872 29.3463 31.6408 29.3463H31.4361C30.2359 29.3463 29.3459 28.1317 29.6649 27.0152Z" fill="#283A2F" stroke="#283A2F"/>
<path d="M64.4272 36.9756L64.4263 36.9787C62.734 43.0511 57.9543 47.7332 51.9767 49.4269L51.9756 49.4272C50.8591 49.7462 49.6445 48.8562 49.6445 47.656V47.4513C49.6445 43.9049 51.123 40.6526 53.3878 38.3878C55.6526 36.123 58.9049 34.6445 62.4513 34.6445H62.656C63.8562 34.6445 64.7462 35.8591 64.4272 36.9756Z" fill="#283A2F" stroke="#283A2F"/>
<path d="M52.0779 14.5636L52.081 14.5645C58.1534 16.2568 62.8355 21.0365 64.5292 27.0141L64.5295 27.0152C64.8485 28.1317 63.9585 29.3463 62.7583 29.3463H62.5536C59.0072 29.3463 55.7549 27.8678 53.4901 25.603C51.2253 23.3382 49.7468 20.0859 49.7468 16.5395V16.3347C49.7468 15.1346 50.9613 14.2446 52.0779 14.5636Z" fill="#283A2F" stroke="#283A2F"/>
</g>
<defs>
<clipPath id="clip0_895_264">
<rect width="36.1024" height="36" fill="white" transform="translate(29 14)"/>
</clipPath>
</defs>
</svg>
